/* XPM */
static char * shade_pressed_xpm[] = {
"18 18 15 1",
" 	c #000000",
".	c #0A0B0C",
"+	c #444546",
"@	c #5E5F60",
"#	c #78797A",
"$	c #7A7B7C",
"%	c #4D4E4F",
"&	c #2E2F30",
"*	c #000102",
"=	c #656667",
"-	c #676869",
";	c #040506",
">	c #111213",
",	c #0E0F10",
"'	c #848586",
"                  ",
"     .+@##@+.     ",
"    +$%&**&%$+    ",
"   =-;      ;-=   ",
"  +- .>>>>>>, -+  ",
" .$; '''''''' ;$. ",
" +%            %+ ",
" @&            &@ ",
" #*            *# ",
" #*            *# ",
" @&            &@ ",
" +%            %+ ",
" .$;          ;$. ",
"  +-          -+  ",
"   =-;      ;-=   ",
"    +$%&**&%$+    ",
"     .+@##@+.     ",
"                  "};
