/* XPM */
static char * shade_inactive_xpm[] = {
"18 18 13 1",
" 	c #000000",
".	c #020305",
"+	c #141518",
"@	c #1B1C1F",
"#	c #212225",
"$	c #16171A",
"%	c #0E0F12",
"&	c #1C1D20",
"*	c #1D1E21",
"=	c #000103",
"-	c #07080B",
";	c #050608",
">	c #242528",
"                  ",
"     .+@##@+.     ",
"    +#$%  %$#+    ",
"   &*=      =*&   ",
"  +* .------; *+  ",
" .#= >>>>>>>> =#. ",
" +$            $+ ",
" @%            %@ ",
" #              # ",
" #              # ",
" @%            %@ ",
" +$            $+ ",
" .#=          =#. ",
"  +*          *+  ",
"   &*=      =*&   ",
"    +#$%  %$#+    ",
"     .+@##@+.     ",
"                  "};
