/* XPM */
static char * stick_pressed_xpm[] = {
"18 18 17 1",
" 	c #000000",
".	c #0D0D0E",
"+	c #474748",
"@	c #616162",
"#	c #7B7B7C",
"$	c #7D7D7E",
"%	c #505051",
"&	c #313132",
"*	c #030304",
"=	c #686869",
"-	c #6A6A6B",
";	c #070708",
">	c #333334",
",	c #868687",
"'	c #858586",
")	c #848485",
"!	c #878788",
"                  ",
"     .+@##@+.     ",
"    +$%&**&%$+    ",
"   =-;      ;-=   ",
"  +-    **    -+  ",
" .$;  >,'',>  ;$. ",
" +%  >)!!!!)>  %+ ",
" @&  ,!!!!!!,  &@ ",
" #* *'!!!!!!'* *# ",
" #* *'!!!!!!'* *# ",
" @&  ,!!!!!!,  &@ ",
" +%  >)!!!!)>  %+ ",
" .$;  >,'',>  ;$. ",
"  +-    **    -+  ",
"   =-;      ;-=   ",
"    +$%&**&%$+    ",
"     .+@##@+.     ",
"                  "};
