/* XPM */
static char * stick_inactive_xpm[] = {
"18 18 10 1",
" 	c #000000",
".	c #000002",
"+	c #121215",
"@	c #19191C",
"#	c #1F1F22",
"$	c #141417",
"%	c #0C0C0F",
"&	c #1A1A1D",
"*	c #1B1B1E",
"=	c #222225",
"                  ",
"     .+@##@+.     ",
"    +#$%  %$#+    ",
"   &*        *&   ",
"  +*          *+  ",
" .#   %====%   #. ",
" +$  %======%  $+ ",
" @%  ========  %@ ",
" #   ========   # ",
" #   ========   # ",
" @%  ========  %@ ",
" +$  %======%  $+ ",
" .#   %====%   #. ",
"  +*          *+  ",
"   &*        *&   ",
"    +#$%  %$#+    ",
"     .+@##@+.     ",
"                  "};
